<svg xmlns="http://www.w3.org/2000/svg" viewBox="0 0 192 192" fill="none">
  <rect width="192" height="192" rx="48" fill="#1565C0"/>
  <circle cx="96" cy="96" r="58" fill="#E3F2FD" opacity="0.18"/>
  <path d="M96 56c-15.8 0-28 11.7-28 27 0 12.2 7.5 22.7 18.4 27.1V136h19.2v-25.9c10.9-4.4 18.4-14.9 18.4-27.1 0-15.3-12.2-27-28-27Z" fill="#fff"/>
  <path d="M69 88c8.5 6.5 18 10.1 27 10.1 9 0 18.5-3.6 27-10.1" stroke="#1565C0" stroke-width="8" stroke-linecap="round"/>
  <path d="M82 51c3.2-7.1 7.9-10.7 14-10.7 6.1 0 10.8 3.6 14 10.7" stroke="#80CBC4" stroke-width="8" stroke-linecap="round"/>
</svg>
