<svg xmlns="http://www.w3.org/2000/svg" viewBox="0 0 512 512" fill="none">
  <rect width="512" height="512" rx="128" fill="#1565C0"/>
  <circle cx="256" cy="256" r="154" fill="#E3F2FD" opacity="0.18"/>
  <path d="M256 149c-42.1 0-74.7 31.2-74.7 72 0 32.6 20 60.7 49.1 72.3V362h51.1v-68.7c29.1-11.7 49.1-39.8 49.1-72.3 0-40.8-32.5-72-74.6-72Z" fill="#fff"/>
  <path d="M184 234c22.6 17.4 47.9 27 72 27 24.1 0 49.4-9.6 72-27" stroke="#1565C0" stroke-width="20" stroke-linecap="round"/>
  <path d="M220 135c8.6-18.9 21.2-28.5 36-28.5s27.4 9.6 36 28.5" stroke="#80CBC4" stroke-width="20" stroke-linecap="round"/>
</svg>
